<svg xmlns="http://www.w3.org/2000/svg" viewBox="0 0 320 320" data-catalog-item="home-clutter-detail-props-0174-james-dorothy-home-james-brass-game-box"><defs><linearGradient id="bg" x1="0" y1="0" x2="1" y2="1"><stop stop-color="#39271a"/><stop offset=".55" stop-color="#20150f"/><stop offset="1" stop-color="#0d0907"/></linearGradient><linearGradient id="screen" x1="0" y1="0" x2="1" y2="1"><stop stop-color="#547f8b"/><stop offset=".45" stop-color="#1b3138"/><stop offset="1" stop-color="#0e161a"/></linearGradient></defs><rect width="320" height="320" rx="24" fill="url(#bg)"/><path d="M0 235 H320 V320 H0Z" fill="#100b08" opacity=".78"/><g><ellipse cx="160" cy="226" rx="105" ry="16" fill="#000" opacity=".22"/><rect x="54" y="199" width="212" height="20" rx="5" fill="#263a33" stroke="#24170f" stroke-width="5" stroke-linejoin="round"/><path d="M62 206.0 C117.6 201.0,196.04000000000002 211.0,258 204.6" fill="none" stroke="#f3cc91" stroke-opacity=".2" stroke-width="3"/><rect x="76" y="140" width="19" height="73" rx="3" fill="#5f4939" stroke="#24170f" stroke-width="5" stroke-linejoin="round"/><circle cx="85.5" cy="148" r="4" fill="#e7dac0"/><rect x="103" y="156" width="18" height="75" rx="4" fill="#b38b59" stroke="#24170f" stroke-width="5" stroke-linejoin="round"/><circle cx="112.0" cy="164" r="4" fill="#e7dac0"/><rect x="136" y="164" width="18" height="76" rx="5" fill="#5f4939" stroke="#24170f" stroke-width="5" stroke-linejoin="round"/><circle cx="145.0" cy="172" r="4" fill="#e7dac0"/><rect x="167" y="141" width="18" height="50" rx="6" fill="#b38b59" stroke="#24170f" stroke-width="5" stroke-linejoin="round"/><circle cx="176.0" cy="149" r="4" fill="#e7dac0"/><rect x="196" y="129" width="18" height="37" rx="7" fill="#5f4939" stroke="#24170f" stroke-width="5" stroke-linejoin="round"/><circle cx="205.0" cy="137" r="4" fill="#e7dac0"/><g class="item-signature"><path d="M96 97 Q160 96 224 97" fill="none" stroke="#b38b59" stroke-width="5" opacity=".52"/><path d="M96 124 Q160 114 224 124" fill="none" stroke="#e7dac0" stroke-width="4" opacity=".52"/><path d="M96 153 Q160 139 224 153" fill="none" stroke="#b38b59" stroke-width="6" opacity=".52"/><path d="M96 178 Q160 162 224 178" fill="none" stroke="#e7dac0" stroke-width="4" opacity=".52"/><circle cx="193" cy="99" r="3" fill="#d6ad61" opacity=".64"/><circle cx="125" cy="136" r="2" fill="#d6ad61" opacity=".64"/><circle cx="120" cy="136" r="2" fill="#d6ad61" opacity=".64"/></g></g><text x="160" y="260" text-anchor="middle" fill="#fff0d1" font-family="Georgia,serif" font-size="14" font-weight="700">James Brass Game Box</text><text x="160" y="282" text-anchor="middle" fill="#f4c969" font-family="system-ui,sans-serif" font-size="10" font-weight="800">James &amp; Dorothy Home · Family Signature</text></svg>