<svg xmlns="http://www.w3.org/2000/svg" viewBox="0 0 320 320" data-catalog-item="home-clutter-detail-props-0206-old-lodge-old-copper-board-game-stack"><defs><linearGradient id="bg" x1="0" y1="0" x2="1" y2="1"><stop stop-color="#39271a"/><stop offset=".55" stop-color="#20150f"/><stop offset="1" stop-color="#0d0907"/></linearGradient><linearGradient id="screen" x1="0" y1="0" x2="1" y2="1"><stop stop-color="#547f8b"/><stop offset=".45" stop-color="#1b3138"/><stop offset="1" stop-color="#0e161a"/></linearGradient></defs><g><circle cx="160" cy="143" r="122" fill="none" stroke="#f0b54f" stroke-opacity=".5" stroke-width="4" stroke-dasharray="8 9"/><ellipse cx="160" cy="226" rx="105" ry="16" fill="#000" opacity=".22"/><rect x="54" y="199" width="212" height="20" rx="9" fill="#3a2922" stroke="#24170f" stroke-width="5" stroke-linejoin="round"/><path d="M62 206.0 C117.6 201.0,196.04000000000002 211.0,258 204.6" fill="none" stroke="#f3cc91" stroke-opacity=".2" stroke-width="3"/><rect x="75" y="158" width="22" height="48" rx="3" fill="#3f5d67" stroke="#24170f" stroke-width="5" stroke-linejoin="round"/><circle cx="86.0" cy="166" r="4" fill="#ede0c9"/><rect x="108" y="138" width="20" height="36" rx="4" fill="#a9825e" stroke="#24170f" stroke-width="5" stroke-linejoin="round"/><circle cx="118.0" cy="146" r="4" fill="#ede0c9"/><rect x="133" y="128" width="19" height="30" rx="5" fill="#3f5d67" stroke="#24170f" stroke-width="5" stroke-linejoin="round"/><circle cx="142.5" cy="136" r="4" fill="#ede0c9"/><rect x="160" y="123" width="18" height="27" rx="6" fill="#a9825e" stroke="#24170f" stroke-width="5" stroke-linejoin="round"/><circle cx="169.0" cy="131" r="4" fill="#ede0c9"/><g class="item-signature"><path d="M103 112 C127 93,193 129,217 112" fill="none" stroke="#ede0c9" stroke-width="8" opacity=".52"/><path d="M103 144 C127 133,193 159,217 144" fill="none" stroke="#a9825e" stroke-width="8" opacity=".52"/><path d="M103 176 C127 161,193 197,217 176" fill="none" stroke="#ede0c9" stroke-width="8" opacity=".52"/><circle cx="165" cy="137" r="4" fill="#d6ad61" opacity=".64"/><circle cx="202" cy="137" r="3" fill="#d6ad61" opacity=".64"/><circle cx="179" cy="103" r="4" fill="#d6ad61" opacity=".64"/></g></g></svg>