<svg xmlns="http://www.w3.org/2000/svg" viewBox="0 0 320 320" data-catalog-item="home-electronics-entertainment-0055-movie-cabin-tapered-cedar-projector"><defs><linearGradient id="bg" x1="0" y1="0" x2="1" y2="1"><stop stop-color="#39271a"/><stop offset=".55" stop-color="#20150f"/><stop offset="1" stop-color="#0d0907"/></linearGradient><linearGradient id="screen" x1="0" y1="0" x2="1" y2="1"><stop stop-color="#547f8b"/><stop offset=".45" stop-color="#1b3138"/><stop offset="1" stop-color="#0e161a"/></linearGradient></defs><g><ellipse cx="160" cy="226" rx="105" ry="16" fill="#000" opacity=".22"/><rect x="50" y="65" width="220" height="132" rx="10" fill="#202627" stroke="#24170f" stroke-width="5" stroke-linejoin="round"/><rect x="64" y="79" width="192" height="103" rx="5" fill="url(#screen)"/><path d="M142 198 v24 M178 198 v24 M112 226 h96" stroke="#b38b59" stroke-width="9" stroke-linecap="round"/><circle cx="160" cy="130" r="23" fill="none" stroke="#5f4939" stroke-width="4" opacity=".65"/><g class="item-signature"><path d="M96 93 Q160 86 224 93" fill="none" stroke="#b38b59" stroke-width="7" opacity=".52"/><path d="M96 122 Q160 109 224 122" fill="none" stroke="#e7dac0" stroke-width="5" opacity=".52"/><path d="M96 150 Q160 134 224 150" fill="none" stroke="#b38b59" stroke-width="6" opacity=".52"/><path d="M96 182 Q160 165 224 182" fill="none" stroke="#e7dac0" stroke-width="7" opacity=".52"/><circle cx="121" cy="148" r="5" fill="#d6ad61" opacity=".64"/><circle cx="181" cy="194" r="3" fill="#d6ad61" opacity=".64"/><circle cx="182" cy="89" r="2" fill="#d6ad61" opacity=".64"/></g></g></svg>