<svg xmlns="http://www.w3.org/2000/svg" viewBox="0 0 320 320" data-catalog-item="home-flagship-h096-kristen-layered-linen-bed"><defs><linearGradient id="bg" x1="0" y1="0" x2="1" y2="1"><stop stop-color="#39271a"/><stop offset=".55" stop-color="#20150f"/><stop offset="1" stop-color="#0d0907"/></linearGradient><linearGradient id="screen" x1="0" y1="0" x2="1" y2="1"><stop stop-color="#547f8b"/><stop offset=".45" stop-color="#1b3138"/><stop offset="1" stop-color="#0e161a"/></linearGradient></defs><g><circle cx="160" cy="143" r="122" fill="none" stroke="#f4c969" stroke-opacity=".5" stroke-width="4" stroke-dasharray="8 9"/><ellipse cx="160" cy="226" rx="105" ry="16" fill="#000" opacity=".22"/><rect x="48" y="80" width="224" height="55" rx="7" fill="#4d5c46" stroke="#24170f" stroke-width="5" stroke-linejoin="round"/><path d="M56 99.25 C115.2 85.5,198.08 113.0,264 95.4" fill="none" stroke="#f3cc91" stroke-opacity=".2" stroke-width="3"/><rect x="61" y="136" width="198" height="70" rx="7" fill="#7a4c41" stroke="#24170f" stroke-width="5" stroke-linejoin="round"/><path d="M69 160.5 C120.4 143.0,193.66 178.0,251 155.6" fill="none" stroke="#f3cc91" stroke-opacity=".2" stroke-width="3"/><rect x="72" y="145" width="176" height="52" rx="8" fill="#d3b070" stroke="#24170f" stroke-width="5" stroke-linejoin="round"/><path d="M72 180 Q160 158 248 180 L248 201 L72 201Z" fill="#7a4c41" opacity=".86"/><rect x="58" y="76" width="12" height="148" rx="5" fill="#4d5c46"/><rect x="250" y="76" width="12" height="148" rx="5" fill="#4d5c46"/><g class="item-signature"><path d="M115 109 L126 120 L115 131 L104 120Z" fill="#f0e0c9" opacity=".46" stroke="#4d5c46" stroke-width="2"/><path d="M160 117 L174 131 L160 145 L146 131Z" fill="#d3b070" opacity=".46" stroke="#4d5c46" stroke-width="2"/><path d="M205 136 L221 152 L205 168 L189 152Z" fill="#f0e0c9" opacity=".46" stroke="#4d5c46" stroke-width="2"/><circle cx="150" cy="182" r="4" fill="#d6ad61" opacity=".64"/><circle cx="202" cy="185" r="3" fill="#d6ad61" opacity=".64"/><circle cx="133" cy="175" r="4" fill="#d6ad61" opacity=".64"/></g></g></svg>