<svg xmlns="http://www.w3.org/2000/svg" viewBox="0 0 320 320" data-catalog-item="home-wall-decor-pictures-0099-james-dorothy-home-carved-rose-photo-collage"><defs><linearGradient id="bg" x1="0" y1="0" x2="1" y2="1"><stop stop-color="#39271a"/><stop offset=".55" stop-color="#20150f"/><stop offset="1" stop-color="#0d0907"/></linearGradient><linearGradient id="screen" x1="0" y1="0" x2="1" y2="1"><stop stop-color="#547f8b"/><stop offset=".45" stop-color="#1b3138"/><stop offset="1" stop-color="#0e161a"/></linearGradient></defs><g><ellipse cx="160" cy="226" rx="105" ry="16" fill="#000" opacity=".22"/><rect x="74" y="51" width="172" height="160" rx="10" fill="#2d2a27" stroke="#24170f" stroke-width="5" stroke-linejoin="round"/><rect x="88" y="66" width="144" height="130" rx="4" fill="#4a5360" stroke="#24170f" stroke-width="5" stroke-linejoin="round"/><path d="M100 176 L138 91 L167 151 L198 101 L220 176Z" fill="#9a7952" opacity=".76"/><circle cx="126" cy="101" r="18" fill="#e7d8bf" opacity=".76"/><g class="item-signature"><rect x="101" y="106" width="17" height="101" rx="4" fill="#9a7952" opacity=".32"/><rect x="132" y="106" width="17" height="86" rx="4" fill="#e7d8bf" opacity=".32"/><rect x="167" y="106" width="17" height="98" rx="4" fill="#9a7952" opacity=".32"/><rect x="198" y="106" width="17" height="85" rx="4" fill="#e7d8bf" opacity=".32"/><rect x="226" y="106" width="12" height="78" rx="4" fill="#9a7952" opacity=".32"/><circle cx="201" cy="132" r="3" fill="#d6ad61" opacity=".64"/><circle cx="200" cy="100" r="2" fill="#d6ad61" opacity=".64"/><circle cx="195" cy="195" r="2" fill="#d6ad61" opacity=".64"/></g></g></svg>